<svg width="237" height="58" viewBox="0 0 237 58" fill="none" xmlns="http://www.w3.org/2000/svg">
<g clip-path="url(#clip0_19_86)">
<path d="M94.9627 34.4247L78.2141 18.1097C76.9133 16.8045 74.7994 16.3966 72.9294 16.9676C71.0594 17.5387 69.8398 19.007 69.8398 20.7201V41.1139H75.775V23.4937L92.5236 39.7271C93.4179 40.6245 94.7187 41.1139 96.1009 41.1139C96.67 41.1139 97.2392 41.0323 97.8083 40.8692C99.6783 40.2982 100.898 38.8298 100.898 37.1167V17.0492H94.9627V34.4247ZM105.044 23.1674V40.6245H110.979V23.1674C110.979 22.4332 111.711 21.8622 112.524 21.8622H132.606V16.8045H112.524C108.378 16.8045 105.044 19.6596 105.044 23.1674Z" fill="white"/>
<path d="M132.606 26.4304H113.256V31.488H132.606V26.4304ZM137.728 21.8622H149.599V40.7061H155.534V21.8622H167.404V16.8045H137.728V21.8622ZM176.754 31.4065V26.4304C176.754 23.9016 179.193 21.8622 182.12 21.8622H199.682V16.8045H182.12C175.86 16.8045 170.738 21.128 170.738 26.4304V31.4065C170.738 36.7089 175.86 41.0324 182.12 41.0324H193.096V35.9747H182.12C179.112 35.8931 176.754 33.8537 176.754 31.4065Z" fill="white"/>
<path d="M193.828 26.3488H182.689V31.4065H193.828C194.641 31.4065 195.373 31.8144 195.373 32.3854V40.6245H201.308V32.3854C201.389 29.0408 197.974 26.3488 193.828 26.3488Z" fill="#EFDA1C"/>
<path d="M224.804 16.9677H217.406C210.658 16.9677 205.21 21.6174 205.21 27.2461V30.5907C205.21 36.301 210.658 40.9508 217.406 40.9508H224.804C231.553 40.9508 237 36.301 237 30.5907V27.2461C237 21.6174 231.471 16.9677 224.804 16.9677ZM230.983 30.6723C230.983 33.609 228.219 35.9747 224.723 35.9747H217.324C213.91 35.9747 211.064 33.609 211.064 30.6723V27.3277C211.064 24.391 213.828 22.0253 217.324 22.0253H224.723C228.138 22.0253 230.983 24.391 230.983 27.3277V30.6723Z" fill="white"/>
<path d="M46.1804 58H11.6264C5.20343 58 0 52.7792 0 46.3347V11.6653C0 5.22082 5.20343 0 11.6264 0H46.2617C52.6847 0 57.8882 5.22082 57.8882 11.6653V46.4163C57.8069 52.7792 52.6034 58 46.1804 58Z" fill="#EFDA1C"/>
<path d="M35.6922 19.1702C35.2857 19.3334 35.4483 19.8228 35.8548 19.7412L38.05 19.6597L33.6597 31.4065L29.5132 23.82C28.2123 21.3727 25.7732 19.7412 23.0089 19.5781H21.7893C18.5372 19.8228 15.8542 21.8622 14.7159 24.9621L8.04901 43.5612C7.96771 43.7244 8.13032 43.8059 8.21162 43.8059H18.2933C18.3746 43.8059 18.4559 43.7244 18.4559 43.6428L22.765 31.9775L26.9114 39.564C28.4562 42.4192 31.4645 44.0507 34.6353 43.8059C37.8061 43.5612 40.5705 41.5218 41.7087 38.5035L48.6195 19.5781L50.4895 14.4388C50.5708 14.2757 50.4082 14.1125 50.2456 14.1941L35.6922 19.1702Z" fill="white"/>
<mask id="mask0_19_86" style="mask-type:luminance" maskUnits="userSpaceOnUse" x="8" y="14" width="43" height="30">
<path d="M35.6922 19.1702C35.2857 19.3334 35.4483 19.8228 35.8548 19.7412L38.05 19.6597L33.6597 31.4065L29.5132 23.82C28.2123 21.3727 25.7732 19.7412 23.0089 19.5781H21.7893C18.5372 19.8228 15.8542 21.8622 14.7159 24.9621L8.04901 43.5612C7.96771 43.7244 8.13032 43.8059 8.21162 43.8059H18.2933C18.3746 43.8059 18.4559 43.7244 18.4559 43.6428L22.765 31.9775L26.9114 39.564C28.4562 42.4192 31.4645 44.0507 34.6353 43.8059C37.8061 43.5612 40.5705 41.5218 41.7087 38.5035L48.6195 19.5781L50.4895 14.4388C50.5708 14.2757 50.4082 14.1125 50.2456 14.1941L35.6922 19.1702Z" fill="white"/>
</mask>
<g mask="url(#mask0_19_86)">
<path d="M36.5866 48.6189L17.8867 12.5626L4.95947 46.2532H12.4394L17.4802 31.8144C18.212 29.5303 21.3015 29.3671 22.4397 31.4881L29.4319 45.3559L36.5866 48.6189Z" fill="#98AF3C"/>
</g>
<mask id="mask1_19_86" style="mask-type:luminance" maskUnits="userSpaceOnUse" x="8" y="14" width="43" height="30">
<path d="M35.6922 19.1702C35.2857 19.3334 35.4483 19.8228 35.8548 19.7412L38.05 19.6597L33.6597 31.4065L29.5132 23.82C28.2123 21.3727 25.7732 19.7412 23.0089 19.5781H21.7893C18.5372 19.8228 15.8542 21.8622 14.7159 24.9621L8.04901 43.5612C7.96771 43.7244 8.13032 43.8059 8.21162 43.8059H18.2933C18.3746 43.8059 18.4559 43.7244 18.4559 43.6428L22.765 31.9775L26.9114 39.564C28.4562 42.4192 31.4645 44.0507 34.6353 43.8059C37.8061 43.5612 40.5705 41.5218 41.7087 38.5035L48.6195 19.5781L50.4895 14.4388C50.5708 14.2757 50.4082 14.1125 50.2456 14.1941L35.6922 19.1702Z" fill="white"/>
</mask>
<g mask="url(#mask1_19_86)">
<path d="M30.2449 24.7989L34.554 32.7117C35.367 34.1801 37.5622 34.0985 38.1313 32.467L43.0908 19.8228H36.9931L30.2449 24.7989Z" fill="#98AF3C"/>
</g>
</g>
<defs>
<clipPath id="clip0_19_86">
<rect width="237" height="58" fill="white"/>
</clipPath>
</defs>
</svg>
